<svg xmlns="http://www.w3.org/2000/svg"
    xmlns:xlink="http://www.w3.org/1999/xlink" viewBox="0,0,256,256" width="32px" height="32px" fill-rule="nonzero">
    <defs>
        <clipPath id="clip-1">
            <path d="M0,256v-256h256v256zM218.70987,173.73333c-2.88587,-6.58933 -9.47147,-11.2 -17.10987,-11.2c-7.6384,0 -14.224,4.61067 -17.10987,11.2h-12.7568v12.7568c-6.58933,2.88587 -11.2,9.47147 -11.2,17.10987c0,7.6384 4.61067,14.224 11.2,17.10987v12.7568h59.73333v-59.73333z" id="overlayBgMask" fill="none"></path>
        </clipPath>
    </defs>
    <g clip-path="url(#clip-1)" fill="none" fill-rule="nonzero" stroke="none" stroke-width="1" stroke-linecap="butt" stroke-linejoin="miter" stroke-miterlimit="10" stroke-dasharray="" stroke-dashoffset="0" font-family="none" font-weight="none" font-size="none" text-anchor="none" style="mix-blend-mode: normal">
        <g transform="scale(8,8)" fill="currentColor">
            <path d="M16,4c-2.367,0 -4.64809,0.69 -6.62109,2h-3.37891v3.37891c-1.31,1.973 -2,4.25409 -2,6.62109c0,2.367 0.69,4.64809 2,6.62109v3.37891h3.37891c1.973,1.31 4.25409,2 6.62109,2c2.367,0 4.64809,-0.69 6.62109,-2h3.37891v-3.37891c1.31,-1.973 2,-4.25409 2,-6.62109c0,-2.367 -0.69,-4.64809 -2,-6.62109v-3.37891h-3.37891c-1.973,-1.31 -4.25409,-2 -6.62109,-2zM16,6c2.061,0 4.04528,0.62936 5.73828,1.81836l0.25781,0.18164h2.00391v2.00391l0.18164,0.25781c1.189,1.694 1.81836,3.67828 1.81836,5.73828c0,2.061 -0.62936,4.04528 -1.81836,5.73828l-0.18164,0.25781v2.00391h-2.00391l-0.25781,0.18164c-1.693,1.189 -3.67728,1.81836 -5.73828,1.81836c-2.06,0 -4.04428,-0.62936 -5.73828,-1.81836l-0.25781,-0.18164h-2.00391v-2.00391l-0.18164,-0.25781c-1.189,-1.693 -1.81836,-3.67728 -1.81836,-5.73828c0,-2.06 0.62936,-4.04428 1.81836,-5.73828l0.18164,-0.25781v-2.00391h2.00391l0.25781,-0.18164c1.694,-1.189 3.67828,-1.81836 5.73828,-1.81836zM9,11l0.79492,0.79492c0.135,0.134 0.22658,0.30328 0.26758,0.48828l1.81836,8.18164c0.074,0.334 -0.02753,0.68183 -0.26953,0.92383l-0.61133,0.61133h4l-0.46289,-0.92773l1.46289,-4.07227l1.46289,4.07227l-0.46289,0.92773h4l-0.61133,-0.61133c-0.242,-0.242 -0.34353,-0.58983 -0.26953,-0.92383l1.81836,-8.18164c0.041,-0.186 0.13358,-0.35428 0.26758,-0.48828l0.79492,-0.79492h-4l0.33594,0.66992c0.107,0.214 0.13222,0.45745 0.07422,0.68945l-1.12695,4.50781l-2.2832,-5.86719l-2.2832,5.86719l-1.12695,-4.50781c-0.058,-0.232 -0.03083,-0.47545 0.07617,-0.68945l0.33398,-0.66992z"></path>
        </g>
    </g>
    <g fill="currentColor" fill-rule="nonzero" stroke="none" stroke-width="1" stroke-linecap="butt" stroke-linejoin="miter" stroke-miterlimit="10" stroke-dasharray="" stroke-dashoffset="0" font-family="none" font-weight="none" font-size="none" text-anchor="none" style="mix-blend-mode: normal">
        <g transform="translate(168,170) scale(3.73333,3.73333)" id="overlay">
            <path d="M12,3c0,-1.654 -1.346,-3 -3,-3c-1.654,0 -3,1.346 -3,3h-3v3c-1.654,0 -3,1.346 -3,3c0,1.654 1.346,3 3,3v3h12v-12zM13,13h-8v-3h-2c-0.551,0 -1,-0.449 -1,-1c0,-0.551 0.449,-1 1,-1h2v-3h3v-2c0,-0.551 0.449,-1 1,-1c0.551,0 1,0.449 1,1v2h3z"></path>
        </g>
    </g>
</svg>